<svg xmlns="http://www.w3.org/2000/svg" viewBox="0 0 300 240" fill="none">
  <defs>
    <linearGradient id="ringGrad" x1="0%" y1="0%" x2="100%" y2="100%">
      <stop offset="0%" stop-color="#6366f1" stop-opacity="0.9"/>
      <stop offset="50%" stop-color="#8b5cf6" stop-opacity="0.7"/>
      <stop offset="100%" stop-color="#6366f1" stop-opacity="0.2"/>
    </linearGradient>
    <linearGradient id="gearGrad" x1="0%" y1="0%" x2="100%" y2="100%">
      <stop offset="0%" stop-color="#818cf8" stop-opacity="0.7"/>
      <stop offset="100%" stop-color="#6366f1" stop-opacity="0.8"/>
    </linearGradient>
    <linearGradient id="loadBg" x1="0%" y1="0%" x2="100%" y2="100%">
      <stop offset="0%" stop-color="#ede9fe" stop-opacity="0.4"/>
      <stop offset="100%" stop-color="#e0e7ff" stop-opacity="0.3"/>
    </linearGradient>
    <radialGradient id="centerGlow" cx="50%" cy="50%" r="50%">
      <stop offset="0%" stop-color="#a78bfa" stop-opacity="0.2"/>
      <stop offset="100%" stop-color="#a78bfa" stop-opacity="0"/>
    </radialGradient>
  </defs>
  <!-- Background glow -->
  <circle cx="150" cy="120" r="88" fill="url(#loadBg)"/>
  <circle cx="150" cy="120" r="55" fill="url(#centerGlow)"/>
  <!-- Progress ring (partial) -->
  <circle cx="150" cy="120" r="50" stroke="#e2e8f0" stroke-width="4" fill="none" opacity="0.4"/>
  <path d="M150 70 A50 50 0 1 1 100 120" stroke="url(#ringGrad)" stroke-width="5" stroke-linecap="round" fill="none"/>
  <!-- Ring end dot -->
  <circle cx="100" cy="120" r="4" fill="#6366f1" opacity="0.8"/>
  <!-- Gear icon center -->
  <path d="M150 105 L153 105 L154 101 L158 100 L160 103 L163 102 L163 99 L167 99 L167 102 L170 103 L172 100 L176 101 L177 105 L180 105 L180 109 L177 110 L176 114 L180 115 L180 119 L177 119 L176 122 L180 124 L177 127 L174 126 L172 129 L173 132 L170 133 L168 130 L165 131 L165 135 L161 135 L161 131 L158 130 L156 133 L153 132 L154 128 L151 127 L150 130 L147 129 L148 126 L145 124 L143 127 L140 125 L142 122 L140 119 L137 119 L137 115 L140 114 L142 111 L139 109 L142 107 L145 109 L147 106 L146 103 L149 102 Z" fill="url(#gearGrad)" opacity="0.7"/>
  <circle cx="158" cy="117" r="8" fill="#f8fafc" stroke="#818cf8" stroke-width="1" opacity="0.8"/>
  <!-- Sparkles -->
  <path d="M95 80 L97 85 L102 87 L97 89 L95 94 L93 89 L88 87 L93 85 Z" fill="#a78bfa" opacity="0.6"/>
  <path d="M210 85 L211.5 88.5 L215 90 L211.5 91.5 L210 95 L208.5 91.5 L205 90 L208.5 88.5 Z" fill="#818cf8" opacity="0.5"/>
  <path d="M195 155 L196 157.5 L198.5 158.5 L196 159.5 L195 162 L194 159.5 L191.5 158.5 L194 157.5 Z" fill="#c4b5fd" opacity="0.5"/>
  <!-- Orbit dots -->
  <circle cx="150" cy="70" r="3" fill="#6366f1" opacity="0.6"/>
  <circle cx="196" cy="145" r="2.5" fill="#a5b4fc" opacity="0.5"/>
  <circle cx="108" cy="148" r="2" fill="#c7d2fe" opacity="0.5"/>
  <!-- Motion lines -->
  <path d="M115 75 Q105 80 108 90" stroke="#c7d2fe" stroke-width="1" stroke-linecap="round" fill="none" opacity="0.4"/>
  <path d="M190 75 Q200 82 197 90" stroke="#c7d2fe" stroke-width="1" stroke-linecap="round" fill="none" opacity="0.4"/>
  <!-- Bottom accent -->
  <path d="M120 195 Q150 188 180 195" stroke="#e0e7ff" stroke-width="1.5" fill="none" opacity="0.4"/>
</svg>